# xmcd
#
# Track frame offsets:
#	150
#	12597
#	33752
#	47735
#	73498
#	87663
#	97296
#	111551
#	124507
#	135930
#	143794
#	146385
#	163127
#	174927
#	185379
#	207697
#	222050
#	235330
#	247962
#	263579
#	280359
#	300051
#	317814
#	335810
#
# Disc length: 4740 seconds
#
# Revision: 0
# Processed by: cddbd v1.5PL3 Copyright (c) Steve Scherf et al.
# Submitted via: dBpowerAMP V4.0
#
DISCID=6a128218
DTITLE=Trisha Yearwood - Hearts In Armor
DYEAR=1900
DGENRE=Country
TTITLE0=Mama Tried
TTITLE1=Playin in the Band
TTITLE2=Uncle John's Band
TTITLE3=Me and Bobby McGee
TTITLE4=Sounds of Silence
TTITLE5=Tell It To The Mountain
TTITLE6=Sounds of Silence
TTITLE7=Like a ROck
TTITLE8=Homeward Bound
TTITLE9=59th Street Bridge
TTITLE10=Bookends
TTITLE11=America
TTITLE12=Old Friends
TTITLE13=Hazy Shade of Winter
TTITLE14=Bridge Over Troubled Water
TTITLE15=El Condor Pasa
TTITLE16=Cecilia
TTITLE17=Wrong Side of Memphis
TTITLE18=Nearest Distant Shore
TTITLE19=You Say You Will
TTITLE20=Walkaway Joe
TTITLE21=Down on My Knee
TTITLE22=For Reasons I've Forgotten
TTITLE23=Hearts in Armor
EXTD=Trisha Yearwood/Hearts in Armor
EXTT0=
EXTT1=
EXTT2=
EXTT3=
EXTT4=
EXTT5=
EXTT6=
EXTT7=
EXTT8=
EXTT9=
EXTT10=
EXTT11=
EXTT12=
EXTT13=
EXTT14=
EXTT15=
EXTT16=
EXTT17=
EXTT18=
EXTT19=
EXTT20=
EXTT21=
EXTT22=
EXTT23=
PLAYORDER=
